<?xml version="1.0" encoding="UTF-8"?>
<svg xmlns="http://www.w3.org/2000/svg" width="1024" height="1024" viewBox="0 0 1024 1024">
  <defs>
    <linearGradient id="g1" x1="0" x2="1" y1="0" y2="1">
      <stop offset="0%" stop-color="#00C6FF"/>
      <stop offset="100%" stop-color="#0047FF"/>
    </linearGradient>
    <style>
      .node { fill: url(#g1); }
      .link { stroke: url(#g1); stroke-width: 18; stroke-linecap: round; stroke-linejoin: round; }
    </style>
  </defs>

  <!-- Transparent background intentionally omitted -->

  <!-- Network links (simplified stylized mesh) -->
  <g transform="translate(80,120) scale(0.78)">
    <path class="link" d="M120 160 L200 120 L300 140 L380 100 L480 130 L560 160" fill="none"/>
    <path class="link" d="M90 240 L170 220 L260 260 L340 230 L420 260 L500 300" fill="none"/>
    <path class="link" d="M140 320 L220 300 L300 340 L380 320 L460 360 L540 340" fill="none"/>
    <path class="link" d="M200 380 L280 360 L360 400 L440 380 L520 420" fill="none"/>

    <path class="link" d="M520 160 L600 200 L680 220 L760 260" fill="none"/>
    <path class="link" d="M420 320 L520 340 L620 360 L700 380" fill="none"/>
    <path class="link" d="M320 440 L420 420 L520 460 L620 440 L700 460" fill="none"/>

    <!-- Additional cross connections -->
    <path class="link" d="M200 120 L260 180 L360 200" fill="none"/>
    <path class="link" d="M300 140 L360 220 L460 240" fill="none"/>
    <path class="link" d="M480 130 L520 220 L600 260" fill="none"/>

    <!-- Nodes -->
    <circle class="node" cx="120" cy="160" r="20"/>
    <circle class="node" cx="200" cy="120" r="24"/>
    <circle class="node" cx="300" cy="140" r="20"/>
    <circle class="node" cx="380" cy="100" r="22"/>
    <circle class="node" cx="480" cy="130" r="20"/>
    <circle class="node" cx="560" cy="160" r="18"/>

    <circle class="node" cx="90" cy="240" r="16"/>
    <circle class="node" cx="170" cy="220" r="18"/>
    <circle class="node" cx="260" cy="260" r="20"/>
    <circle class="node" cx="340" cy="230" r="18"/>
    <circle class="node" cx="420" cy="260" r="20"/>
    <circle class="node" cx="500" cy="300" r="18"/>

    <circle class="node" cx="140" cy="320" r="16"/>
    <circle class="node" cx="220" cy="300" r="18"/>
    <circle class="node" cx="300" cy="340" r="20"/>
    <circle class="node" cx="380" cy="320" r="18"/>
    <circle class="node" cx="460" cy="360" r="20"/>
    <circle class="node" cx="540" cy="340" r="16"/>

    <circle class="node" cx="200" cy="380" r="18"/>
    <circle class="node" cx="280" cy="360" r="16"/>
    <circle class="node" cx="360" cy="400" r="20"/>
    <circle class="node" cx="440" cy="380" r="18"/>
    <circle class="node" cx="520" cy="420" r="20"/>

    <circle class="node" cx="520" cy="160" r="18"/>
    <circle class="node" cx="600" cy="200" r="20"/>
    <circle class="node" cx="680" cy="220" r="18"/>
    <circle class="node" cx="760" cy="260" r="16"/>

    <circle class="node" cx="420" cy="320" r="18"/>
    <circle class="node" cx="520" cy="340" r="20"/>
    <circle class="node" cx="620" cy="360" r="18"/>
    <circle class="node" cx="700" cy="380" r="16"/>

    <circle class="node" cx="320" cy="440" r="16"/>
    <circle class="node" cx="420" cy="420" r="18"/>
    <circle class="node" cx="520" cy="460" r="20"/>
    <circle class="node" cx="620" cy="440" r="18"/>
    <circle class="node" cx="700" cy="460" r="16"/>

    <!-- Outer brain contour (subtle) -->
    <path d="M40 220 C20 160, 60 80, 160 80 C280 80, 360 40, 520 60 C700 90, 760 160, 780 240 C780 360, 720 420, 640 480 C540 540, 420 560, 300 540 C160 520, 80 460, 40 380 z"
          fill="none" stroke="rgba(0,0,0,0.06)" stroke-width="6"/>
  </g>
</svg>
